<svg width="203" height="197" viewBox="0 0 203 197" fill="none" xmlns="http://www.w3.org/2000/svg">
<path d="M89.301 152.317L89.5637 194.21H105.291V102.282H92.0588L62.9045 151.266L32.9622 102.282H7.48498V194.21H35.72V153.762L55.6816 185.936H69.3395L89.301 152.317Z" fill="white"/>
<path fill-rule="evenodd" clip-rule="evenodd" d="M111.307 194.21V102.282H117.536L117.799 194.21H111.307Z" fill="white"/>
<path d="M111.301 0.000190735V91.9283H117.322V0.000190735H111.301Z" fill="white"/>
<path d="M201.916 0.000190735H170.923V32.569H142.294V0.000190735H123.338V91.9283H142.294V58.0462H170.923V91.9283H201.916V0.000190735Z" fill="white"/>
<path d="M77.7449 0H108.213L69.3401 91.9281H38.8725L0 0H33.3568L55.2882 53.7123L77.7449 0Z" fill="white"/>
<path d="M159.325 196.311C143.96 196.311 128.463 192.503 119.27 186.856L129.251 164.268C137.919 169.389 149.475 172.673 159.587 172.673C168.386 172.673 171.538 170.834 171.538 167.682C171.538 156.125 120.715 165.45 120.715 131.174C120.715 114.101 135.029 100.181 163.527 100.181C175.872 100.181 188.61 102.807 198.197 108.192L188.873 130.648C179.812 126.052 171.275 123.819 163.264 123.819C154.203 123.819 151.314 126.446 151.314 129.598C151.314 140.629 202.137 131.436 202.137 165.318C202.137 182.128 187.822 196.311 159.325 196.311Z" fill="white"/>
</svg>
