<svg width="292" height="288" viewBox="0 0 292 288" fill="none" xmlns="http://www.w3.org/2000/svg">
<rect width="292" height="288" rx="36" fill="black"/>
<path d="M134.233 198.161L134.495 240.054H150.222V148.126H136.99L107.836 197.111L77.8937 148.126H52.4165V240.054H80.6516V199.606L100.613 231.781H114.271L134.233 198.161Z" fill="white"/>
<path fill-rule="evenodd" clip-rule="evenodd" d="M156.239 240.054V148.126H162.468L162.73 240.054H156.239Z" fill="white"/>
<path d="M156.233 45.8446V137.773H162.253V45.8446H156.233Z" fill="white"/>
<path d="M246.847 45.8446H215.855V78.4134H187.225V45.8446H168.27V137.773H187.225V103.891H215.855V137.773H246.847V45.8446Z" fill="white"/>
<path d="M122.676 45.8444H153.144L114.272 137.773H83.804L44.9315 45.8444H78.2883L100.22 99.5567L122.676 45.8444Z" fill="white"/>
<path d="M204.256 242.156C188.891 242.156 173.395 238.347 164.202 232.7L174.183 210.112C182.85 215.234 194.407 218.517 204.519 218.517C213.318 218.517 216.469 216.678 216.469 213.527C216.469 201.97 165.646 211.294 165.646 177.018C165.646 159.946 179.961 146.025 208.459 146.025C220.803 146.025 233.542 148.652 243.129 154.036L233.805 176.493C224.743 171.896 216.207 169.664 208.196 169.664C199.134 169.664 196.245 172.29 196.245 175.442C196.245 186.473 247.068 177.281 247.068 211.163C247.068 227.972 232.754 242.156 204.256 242.156Z" fill="white"/>
</svg>
